G04*
G04 #@! TF.GenerationSoftware,Altium Limited,Altium Designer,21.5.1 (32)*
G04*
G04 Layer_Color=16711935*
%FSLAX25Y25*%
%MOIN*%
G70*
G04*
G04 #@! TF.SameCoordinates,40A1BE61-9D6D-4511-9C65-2EA0C261B3BE*
G04*
G04*
G04 #@! TF.FilePolarity,Negative*
G04*
G01*
G75*
%ADD46R,0.02843X0.02843*%
%ADD47R,0.07488X0.05323*%
%ADD49R,0.03945X0.04339*%
%ADD50R,0.07488X0.04929*%
%ADD52R,0.04535X0.02961*%
%ADD60R,0.02764X0.06504*%
%ADD66R,0.02843X0.02685*%
%ADD68R,0.09653X0.09260*%
%ADD75R,0.02685X0.02843*%
%ADD76R,0.02843X0.02843*%
%ADD77R,0.05402X0.05402*%
%ADD78C,0.07874*%
%ADD79C,0.06504*%
%ADD80C,0.07094*%
%ADD81C,0.10244*%
%ADD82C,0.06701*%
%ADD83C,0.26780*%
%ADD84C,0.07882*%
%ADD85C,0.09850*%
%ADD86C,0.06307*%
%ADD87C,0.11811*%
%ADD88C,0.09063*%
%ADD89C,0.20087*%
%ADD90R,0.06504X0.06504*%
%ADD91C,0.24024*%
%ADD133R,0.04339X0.04142*%
%ADD134R,0.04142X0.04339*%
%ADD135R,0.06504X0.02764*%
%ADD136R,0.10047X0.12213*%
%ADD137R,0.04339X0.03945*%
%ADD138R,0.05323X0.07488*%
%ADD139R,0.06504X0.02764*%
%ADD140R,0.03748X0.04339*%
%ADD141R,0.01976X0.04142*%
%ADD142R,0.04732X0.06110*%
%ADD143R,0.14181X0.06701*%
%ADD144R,0.04339X0.03748*%
%ADD145R,0.04929X0.07488*%
%ADD146R,0.09457X0.31504*%
%ADD147R,0.09457X0.13787*%
%ADD148R,0.10244X0.15362*%
%ADD149R,0.09457X0.08866*%
D46*
X118000Y338272D02*
D03*
Y334728D02*
D03*
D47*
X225209Y342536D02*
D03*
X235445D02*
D03*
D49*
X150618Y167673D02*
D03*
X144319D02*
D03*
Y161200D02*
D03*
X150618D02*
D03*
X173685Y149810D02*
D03*
X167385D02*
D03*
X145706Y278200D02*
D03*
X152006D02*
D03*
X169386Y262810D02*
D03*
X175685D02*
D03*
X172453Y326500D02*
D03*
X178752D02*
D03*
X207159Y73096D02*
D03*
X200859D02*
D03*
X125150Y309652D02*
D03*
X131450D02*
D03*
X226150Y78000D02*
D03*
X219850D02*
D03*
X131362Y316756D02*
D03*
X219850Y70897D02*
D03*
X145706Y271097D02*
D03*
X202150Y364000D02*
D03*
X195850D02*
D03*
X152006Y271097D02*
D03*
X125063Y316756D02*
D03*
X226150Y70897D02*
D03*
X194150Y72946D02*
D03*
X81813Y154137D02*
D03*
X75514D02*
D03*
Y146752D02*
D03*
X81813D02*
D03*
X57188Y159500D02*
D03*
X50889D02*
D03*
X52096Y116169D02*
D03*
X45797D02*
D03*
X78445Y137051D02*
D03*
X84745D02*
D03*
X75514Y129947D02*
D03*
X81813D02*
D03*
X175350Y100000D02*
D03*
X181649D02*
D03*
X174319Y213118D02*
D03*
X180618D02*
D03*
X187850Y72946D02*
D03*
X137850Y48922D02*
D03*
X144150D02*
D03*
X73000Y284000D02*
D03*
X79299D02*
D03*
X73000Y290000D02*
D03*
X79299D02*
D03*
X47650Y269118D02*
D03*
X41350D02*
D03*
X54708Y313150D02*
D03*
X48409D02*
D03*
X70840Y303887D02*
D03*
X77139D02*
D03*
X70840Y310990D02*
D03*
X77140D02*
D03*
D50*
X155469Y120094D02*
D03*
Y131905D02*
D03*
X166000D02*
D03*
Y120488D02*
D03*
X144149Y118791D02*
D03*
Y130209D02*
D03*
X157469Y233094D02*
D03*
Y244905D02*
D03*
X168000D02*
D03*
Y233488D02*
D03*
X146150Y231791D02*
D03*
Y243209D02*
D03*
D52*
X157472Y335472D02*
D03*
X166528Y339213D02*
D03*
X157472Y342953D02*
D03*
X160472Y80899D02*
D03*
X88749Y72409D02*
D03*
X79694Y76150D02*
D03*
Y68669D02*
D03*
X88645Y44803D02*
D03*
X79589Y48543D02*
D03*
Y41062D02*
D03*
X88749Y58559D02*
D03*
X79694Y62299D02*
D03*
Y54819D02*
D03*
X169528Y77159D02*
D03*
X160472Y73419D02*
D03*
D60*
X97650Y305630D02*
D03*
X102650D02*
D03*
X107650D02*
D03*
X112650D02*
D03*
X97650Y284370D02*
D03*
X102650D02*
D03*
X107650D02*
D03*
X112650D02*
D03*
D66*
X73563Y54941D02*
D03*
Y58642D02*
D03*
Y43980D02*
D03*
Y40279D02*
D03*
X73587Y66260D02*
D03*
Y62559D02*
D03*
Y47559D02*
D03*
Y51260D02*
D03*
X75221Y70559D02*
D03*
Y74260D02*
D03*
X95100Y48450D02*
D03*
Y44750D02*
D03*
D68*
X340602Y54173D02*
D03*
X321311D02*
D03*
D75*
X45101Y333149D02*
D03*
X48801D02*
D03*
X56449D02*
D03*
X52749D02*
D03*
X73596Y90500D02*
D03*
X69895D02*
D03*
X78299Y35587D02*
D03*
X82000D02*
D03*
X78746Y90500D02*
D03*
X82447D02*
D03*
D76*
X57582Y212637D02*
D03*
X54039D02*
D03*
X40332Y184608D02*
D03*
X43875D02*
D03*
D77*
X411799Y195339D02*
D03*
D78*
X72133Y373699D02*
D03*
X407756Y33425D02*
D03*
X424409Y18268D02*
D03*
D79*
X258780Y359213D02*
D03*
X95551Y165787D02*
D03*
X268780Y359213D02*
D03*
X85551Y165787D02*
D03*
X268780Y74173D02*
D03*
Y84173D02*
D03*
Y94173D02*
D03*
Y104173D02*
D03*
Y114173D02*
D03*
Y124173D02*
D03*
Y134173D02*
D03*
Y144173D02*
D03*
Y154173D02*
D03*
Y164173D02*
D03*
Y174173D02*
D03*
Y184173D02*
D03*
Y194173D02*
D03*
X258780Y74173D02*
D03*
Y84173D02*
D03*
Y94173D02*
D03*
Y104173D02*
D03*
Y114173D02*
D03*
Y124173D02*
D03*
Y134173D02*
D03*
Y144173D02*
D03*
Y154173D02*
D03*
Y164173D02*
D03*
Y174173D02*
D03*
Y184173D02*
D03*
Y64173D02*
D03*
Y54173D02*
D03*
Y44173D02*
D03*
X268780Y64173D02*
D03*
Y54173D02*
D03*
Y44173D02*
D03*
Y34173D02*
D03*
X258780D02*
D03*
X268780Y249213D02*
D03*
Y259213D02*
D03*
Y269213D02*
D03*
Y279213D02*
D03*
Y289213D02*
D03*
Y299213D02*
D03*
Y309213D02*
D03*
Y319213D02*
D03*
Y329213D02*
D03*
Y339213D02*
D03*
Y349213D02*
D03*
X258780Y239213D02*
D03*
Y249213D02*
D03*
Y259213D02*
D03*
Y269213D02*
D03*
Y279213D02*
D03*
Y289213D02*
D03*
Y299213D02*
D03*
Y309213D02*
D03*
Y319213D02*
D03*
Y329213D02*
D03*
Y339213D02*
D03*
Y349213D02*
D03*
X95551Y175787D02*
D03*
Y185787D02*
D03*
Y195787D02*
D03*
Y205787D02*
D03*
Y215787D02*
D03*
Y225787D02*
D03*
Y235787D02*
D03*
X85551Y175787D02*
D03*
Y185787D02*
D03*
Y195787D02*
D03*
Y205787D02*
D03*
Y215787D02*
D03*
Y225787D02*
D03*
D80*
X8175Y107500D02*
D03*
Y97500D02*
D03*
Y87500D02*
D03*
X28175D02*
D03*
Y97500D02*
D03*
Y107500D02*
D03*
X8175Y182000D02*
D03*
Y172000D02*
D03*
Y162000D02*
D03*
X18175D02*
D03*
Y172000D02*
D03*
Y182000D02*
D03*
Y306500D02*
D03*
Y296500D02*
D03*
Y286500D02*
D03*
X8175D02*
D03*
Y296500D02*
D03*
Y306500D02*
D03*
X11000Y236500D02*
D03*
X21000D02*
D03*
X41000D02*
D03*
X31000D02*
D03*
D81*
X113272Y219530D02*
D03*
Y201026D02*
D03*
Y182522D02*
D03*
X113000Y234996D02*
D03*
Y253500D02*
D03*
Y272004D02*
D03*
X39288Y105500D02*
D03*
X57792D02*
D03*
X76296D02*
D03*
X41996Y259500D02*
D03*
X79004D02*
D03*
X60500D02*
D03*
X41675Y349705D02*
D03*
X60179D02*
D03*
X78683D02*
D03*
X363606Y354732D02*
D03*
X385260Y371268D02*
D03*
Y354732D02*
D03*
X363606Y371268D02*
D03*
X66000Y168000D02*
D03*
Y186504D02*
D03*
Y205008D02*
D03*
X54792Y54992D02*
D03*
X45300Y67984D02*
D03*
Y42000D02*
D03*
D82*
X84458Y326500D02*
D03*
X74458D02*
D03*
X84458Y296500D02*
D03*
X90603Y144000D02*
D03*
Y115834D02*
D03*
X74458Y296500D02*
D03*
X58445Y33608D02*
D03*
X90603Y154000D02*
D03*
Y125834D02*
D03*
X88445Y33608D02*
D03*
X120603Y144000D02*
D03*
Y154000D02*
D03*
Y115834D02*
D03*
Y125834D02*
D03*
X88445Y23608D02*
D03*
X58445D02*
D03*
X157468Y223000D02*
D03*
X197468D02*
D03*
X217469D02*
D03*
X167469D02*
D03*
X187469D02*
D03*
X207469D02*
D03*
X177469D02*
D03*
X227468D02*
D03*
X237469D02*
D03*
X147468D02*
D03*
X155468Y110000D02*
D03*
X195468D02*
D03*
X215469D02*
D03*
X165469D02*
D03*
X185468D02*
D03*
X205469D02*
D03*
X175469D02*
D03*
X225468D02*
D03*
X235469D02*
D03*
X145468D02*
D03*
D83*
X192469Y309000D02*
D03*
X190469Y196000D02*
D03*
D84*
X12600Y134500D02*
D03*
Y260000D02*
D03*
D85*
X22600Y124500D02*
D03*
X2600Y144500D02*
D03*
X22600D02*
D03*
X2600Y124500D02*
D03*
Y250000D02*
D03*
X22600Y270000D02*
D03*
X2600D02*
D03*
X22600Y250000D02*
D03*
X1000Y223000D02*
D03*
X21000D02*
D03*
Y203000D02*
D03*
X1000D02*
D03*
Y347000D02*
D03*
X21000D02*
D03*
Y327000D02*
D03*
X1000D02*
D03*
D86*
X322000Y131000D02*
D03*
Y111000D02*
D03*
Y101000D02*
D03*
Y91000D02*
D03*
Y41000D02*
D03*
Y31000D02*
D03*
X382000Y131000D02*
D03*
Y111000D02*
D03*
Y101000D02*
D03*
Y91000D02*
D03*
Y41000D02*
D03*
Y31000D02*
D03*
D87*
X414000Y363000D02*
D03*
D88*
X11000Y213000D02*
D03*
Y337000D02*
D03*
D89*
X14000Y371701D02*
D03*
Y21701D02*
D03*
D90*
X258780Y194173D02*
D03*
X268780Y239213D02*
D03*
X85551Y235787D02*
D03*
D91*
X229921Y29921D02*
D03*
Y364567D02*
D03*
X111811Y29921D02*
D03*
Y364567D02*
D03*
D133*
X190535Y274823D02*
D03*
X188535Y161823D02*
D03*
X209327Y49415D02*
D03*
X217327Y340469D02*
D03*
X173469Y57323D02*
D03*
X181532Y348869D02*
D03*
Y342570D02*
D03*
X217327Y346768D02*
D03*
X188535Y155524D02*
D03*
X190535Y268524D02*
D03*
X173469Y51024D02*
D03*
X209327Y55714D02*
D03*
D134*
X162712Y292473D02*
D03*
X160712Y179473D02*
D03*
X59697Y116169D02*
D03*
X65997D02*
D03*
X70933Y97500D02*
D03*
X77232D02*
D03*
X167012Y179473D02*
D03*
X208590Y118791D02*
D03*
X202291D02*
D03*
X210590Y231791D02*
D03*
X204291D02*
D03*
X169012Y292473D02*
D03*
X99000Y313150D02*
D03*
X105299D02*
D03*
X54252Y269118D02*
D03*
X60551D02*
D03*
D135*
X161905Y286173D02*
D03*
X183165Y276173D02*
D03*
X159905Y173173D02*
D03*
X181165Y163173D02*
D03*
X161905Y281173D02*
D03*
X159905Y168173D02*
D03*
Y158173D02*
D03*
Y163173D02*
D03*
X181165Y173173D02*
D03*
Y168173D02*
D03*
Y158173D02*
D03*
X161905Y271173D02*
D03*
Y276173D02*
D03*
X183165Y286173D02*
D03*
Y281173D02*
D03*
Y271173D02*
D03*
D136*
X172535Y278673D02*
D03*
X170535Y165673D02*
D03*
D137*
X212606Y248780D02*
D03*
X210606Y135780D02*
D03*
X189689Y357850D02*
D03*
Y364150D02*
D03*
X112650Y337878D02*
D03*
Y331579D02*
D03*
X47497Y224264D02*
D03*
Y217965D02*
D03*
X64345Y218051D02*
D03*
Y224350D02*
D03*
X59094Y239650D02*
D03*
Y233350D02*
D03*
X105332Y156153D02*
D03*
Y149854D02*
D03*
X97925Y150159D02*
D03*
Y143860D02*
D03*
X105332Y142601D02*
D03*
Y136302D02*
D03*
X38373Y134000D02*
D03*
Y127701D02*
D03*
X38373Y144389D02*
D03*
Y150688D02*
D03*
X94700Y137150D02*
D03*
Y130850D02*
D03*
X199760Y129481D02*
D03*
Y135780D02*
D03*
X210606Y129481D02*
D03*
X212606Y242481D02*
D03*
X201760D02*
D03*
Y248780D02*
D03*
X181689Y73096D02*
D03*
Y66797D02*
D03*
X52276Y239650D02*
D03*
Y233350D02*
D03*
X42836Y211500D02*
D03*
Y205201D02*
D03*
X35438Y190121D02*
D03*
Y196420D02*
D03*
X52195Y197650D02*
D03*
Y191350D02*
D03*
X48946Y211500D02*
D03*
Y205201D02*
D03*
X85150Y290099D02*
D03*
Y283799D02*
D03*
X32500Y295610D02*
D03*
Y301910D02*
D03*
X32500Y285650D02*
D03*
Y279350D02*
D03*
X91150Y296150D02*
D03*
Y289850D02*
D03*
X84046Y315206D02*
D03*
Y308907D02*
D03*
X91150Y308150D02*
D03*
Y301850D02*
D03*
D138*
X217000Y50596D02*
D03*
X124605Y337331D02*
D03*
X166142Y60236D02*
D03*
X174142Y351290D02*
D03*
X124605Y347568D02*
D03*
X174142Y341053D02*
D03*
X166142Y50000D02*
D03*
X217000Y60832D02*
D03*
D139*
X201630Y45446D02*
D03*
X209630Y336500D02*
D03*
X180370Y55446D02*
D03*
X188370Y346500D02*
D03*
X90870Y92303D02*
D03*
Y97303D02*
D03*
Y102303D02*
D03*
Y107303D02*
D03*
X112130Y92303D02*
D03*
Y97303D02*
D03*
Y102303D02*
D03*
Y107303D02*
D03*
X209630Y346500D02*
D03*
X188370Y341500D02*
D03*
X209630D02*
D03*
X201630Y50446D02*
D03*
X209630Y351500D02*
D03*
X188370D02*
D03*
Y336500D02*
D03*
X201630Y55446D02*
D03*
X180370Y50446D02*
D03*
X61981Y306949D02*
D03*
Y301949D02*
D03*
Y296949D02*
D03*
Y291949D02*
D03*
Y286949D02*
D03*
Y281949D02*
D03*
Y276949D02*
D03*
X40721Y306949D02*
D03*
Y301949D02*
D03*
Y296949D02*
D03*
Y291949D02*
D03*
Y286949D02*
D03*
Y281949D02*
D03*
Y276949D02*
D03*
X67426Y154000D02*
D03*
Y149000D02*
D03*
Y144000D02*
D03*
Y139000D02*
D03*
Y134000D02*
D03*
Y129000D02*
D03*
Y124000D02*
D03*
X46166Y154000D02*
D03*
Y149000D02*
D03*
Y144000D02*
D03*
Y139000D02*
D03*
Y134000D02*
D03*
Y129000D02*
D03*
Y124000D02*
D03*
X180370Y45446D02*
D03*
Y60446D02*
D03*
X201630D02*
D03*
D140*
X227150Y88297D02*
D03*
X220850D02*
D03*
X238618Y202500D02*
D03*
X232319D02*
D03*
D141*
X53338Y225923D02*
D03*
X55897D02*
D03*
X58456D02*
D03*
Y217262D02*
D03*
X53338D02*
D03*
X41135Y189474D02*
D03*
X46253D02*
D03*
Y198136D02*
D03*
X43694D02*
D03*
X41135D02*
D03*
D142*
X330957Y41000D02*
D03*
X338043D02*
D03*
X313543Y30398D02*
D03*
X306457D02*
D03*
X330957D02*
D03*
X338043D02*
D03*
X313543Y41000D02*
D03*
X306457D02*
D03*
D143*
X185468Y121276D02*
D03*
Y137024D02*
D03*
X187468Y234276D02*
D03*
Y250024D02*
D03*
D144*
X235469Y121024D02*
D03*
Y127323D02*
D03*
X237469Y234024D02*
D03*
Y240323D02*
D03*
D145*
X227709Y98500D02*
D03*
X216291D02*
D03*
X203817Y98500D02*
D03*
X192399D02*
D03*
X238209Y211500D02*
D03*
X226791D02*
D03*
X218118Y211500D02*
D03*
X206701D02*
D03*
D146*
X408079Y291063D02*
D03*
D147*
X367922Y282205D02*
D03*
D148*
X379733Y321969D02*
D03*
Y268032D02*
D03*
X396662Y321969D02*
D03*
Y268032D02*
D03*
D149*
X396965Y250000D02*
D03*
X380035D02*
D03*
M02*
