G04*
G04 #@! TF.GenerationSoftware,Altium Limited,Altium Designer,21.5.1 (32)*
G04*
G04 Layer_Color=32896*
%FSLAX25Y25*%
%MOIN*%
G70*
G04*
G04 #@! TF.SameCoordinates,40A1BE61-9D6D-4511-9C65-2EA0C261B3BE*
G04*
G04*
G04 #@! TF.FilePolarity,Positive*
G04*
G01*
G75*
%ADD10C,0.00984*%
%ADD11C,0.00787*%
%ADD13C,0.01000*%
%ADD98C,0.01968*%
D10*
X116488Y285551D02*
G03*
X116488Y285551I-492J0D01*
G01*
X111441Y110650D02*
G03*
X111441Y110650I-492J0D01*
G01*
X120668Y351406D02*
G03*
X120668Y351406I-492J0D01*
G01*
X170205Y355128D02*
G03*
X170205Y355128I-492J0D01*
G01*
X239776Y346965D02*
G03*
X239776Y346965I-492J0D01*
G01*
X156980Y332126D02*
G03*
X156980Y332126I-492J0D01*
G01*
X208941Y354846D02*
G03*
X208941Y354846I-492J0D01*
G01*
X79202Y65323D02*
G03*
X79202Y65323I-492J0D01*
G01*
X79097Y37716D02*
G03*
X79097Y37716I-492J0D01*
G01*
X79202Y51472D02*
G03*
X79202Y51472I-492J0D01*
G01*
X42394Y273603D02*
G03*
X42394Y273603I-492J0D01*
G01*
X51074Y226711D02*
G03*
X51074Y226711I-492J0D01*
G01*
X38871Y198923D02*
G03*
X38871Y198923I-492J0D01*
G01*
X47840Y120653D02*
G03*
X47840Y120653I-492J0D01*
G01*
X200941Y63793D02*
G03*
X200941Y63793I-492J0D01*
G01*
X158429Y154846D02*
G03*
X158429Y154846I-492J0D01*
G01*
X160429Y267846D02*
G03*
X160429Y267846I-492J0D01*
G01*
X316980Y47185D02*
G03*
X316980Y47185I-492J0D01*
G01*
X162205Y64075D02*
G03*
X162205Y64075I-492J0D01*
G01*
X213063Y64671D02*
G03*
X213063Y64671I-492J0D01*
G01*
X159980Y70072D02*
G03*
X159980Y70072I-492J0D01*
G01*
X374031Y250000D02*
G03*
X374031Y250000I-492J0D01*
G01*
D11*
X372040Y266385D02*
G03*
X372040Y266385I-1969J0D01*
G01*
X370481Y273543D02*
G03*
X372449Y271575I1969J0D01*
G01*
X403551D02*
G03*
X405520Y273543I0J1969D01*
G01*
X372449Y318425D02*
G03*
X370481Y316457I0J-1969D01*
G01*
X405520D02*
G03*
X403551Y318425I-1969J0D01*
G01*
X95307Y288898D02*
Y301102D01*
X114992Y288898D02*
Y301102D01*
X95307D02*
X114992D01*
X95307Y288898D02*
X114992D01*
X95398Y89961D02*
X107602D01*
X95398Y109646D02*
X107602D01*
X95398Y89961D02*
Y109646D01*
X107602Y89961D02*
Y109646D01*
X121849Y342449D02*
X127361D01*
X171386Y346172D02*
X176898D01*
X230327Y339780D02*
Y345292D01*
X160819Y344921D02*
X163181D01*
Y333504D02*
Y344921D01*
X160819Y333504D02*
X163181D01*
X160819D02*
Y344921D01*
X205102Y334157D02*
Y353843D01*
X192898Y334157D02*
Y353843D01*
X205102D01*
X192898Y334157D02*
X205102D01*
X83040Y66701D02*
Y78118D01*
Y66701D02*
X85402D01*
Y78118D01*
X83040D02*
X85402D01*
X82936Y39094D02*
Y50511D01*
Y39094D02*
X85298D01*
Y50511D01*
X82936D02*
X85298D01*
X83040Y52850D02*
Y64268D01*
Y52850D02*
X85402D01*
Y64268D01*
X83040D02*
X85402D01*
X45249Y309272D02*
X57453D01*
X45249Y274626D02*
X57453D01*
Y309272D01*
X45249Y274626D02*
Y309272D01*
X59834Y220411D02*
Y222774D01*
X51960Y220411D02*
X59834D01*
X51960D02*
Y222774D01*
X59834D01*
X39757Y194986D02*
X47631D01*
X39757Y192624D02*
Y194986D01*
Y192624D02*
X47631D01*
Y194986D01*
X50694Y156323D02*
X62899D01*
X50694Y121677D02*
X62899D01*
Y156323D01*
X50694Y121677D02*
Y156323D01*
X184898Y43104D02*
X197102D01*
X184898Y62789D02*
X197102D01*
X184898Y43104D02*
Y62789D01*
X197102Y43104D02*
Y62789D01*
X164433Y172957D02*
Y175319D01*
X176637D01*
Y172957D02*
Y175319D01*
Y156028D02*
Y158390D01*
X164433Y156028D02*
X176637D01*
X164433D02*
Y158390D01*
X166433Y285957D02*
Y288319D01*
X178638D01*
Y285957D02*
Y288319D01*
Y269028D02*
Y271390D01*
X166433Y269028D02*
X178638D01*
X166433D02*
Y271390D01*
X408118Y191657D02*
X415480D01*
X408118D02*
Y199020D01*
X415480D01*
Y191657D02*
Y199020D01*
X343358Y59882D02*
Y61063D01*
Y47283D02*
Y48465D01*
X318555Y47283D02*
Y48465D01*
Y59882D02*
Y61063D01*
X343358D01*
X318555Y47283D02*
X343358D01*
X334500Y38736D02*
Y43264D01*
X310000Y28134D02*
Y32662D01*
X334500Y28134D02*
Y32662D01*
X310000Y38736D02*
Y43264D01*
X179169Y125803D02*
Y132496D01*
X191768Y125803D02*
Y132496D01*
X159012Y124031D02*
Y127968D01*
X151925Y124031D02*
Y127968D01*
X162457Y124228D02*
Y128165D01*
X169543Y124228D02*
Y128165D01*
X147693Y122531D02*
Y126468D01*
X140606Y122531D02*
Y126468D01*
X220031Y102043D02*
X223968D01*
X220031Y94957D02*
X223968D01*
X196139Y102043D02*
X200076D01*
X196139Y94957D02*
X200076D01*
X181169Y238803D02*
Y245496D01*
X193768Y238803D02*
Y245496D01*
X161012Y237031D02*
Y240968D01*
X153925Y237031D02*
Y240968D01*
X164457Y237228D02*
Y241165D01*
X171543Y237228D02*
Y241165D01*
X149693Y235531D02*
Y239468D01*
X142606Y235531D02*
Y239468D01*
X230532Y215043D02*
X234469D01*
X230532Y207957D02*
X234469D01*
X210441Y215043D02*
X214378D01*
X210441Y207957D02*
X214378D01*
X372449Y318425D02*
X373040D01*
X386032D02*
X389969D01*
X405520Y308465D02*
Y316457D01*
X402961Y271575D02*
X403552D01*
X386032D02*
X389969D01*
X370481Y273543D02*
Y274213D01*
X405520Y273543D02*
Y274213D01*
X372449Y271575D02*
X373040D01*
X370481Y290748D02*
Y316457D01*
X402961Y318425D02*
X403552D01*
X163386Y55118D02*
X168898D01*
X214244Y55714D02*
X219756D01*
X163819Y71450D02*
Y82868D01*
Y71450D02*
X166181D01*
Y82868D01*
X163819D02*
X166181D01*
X398933Y255709D02*
Y257087D01*
X378067D02*
X398933D01*
X378067Y255709D02*
Y257087D01*
X398933Y242913D02*
Y244291D01*
X378067Y242913D02*
X398933D01*
X378067D02*
Y244291D01*
X254035Y27673D02*
Y200669D01*
X273524Y27673D02*
Y200669D01*
X254035D02*
X273524D01*
X254035Y27673D02*
X273524D01*
Y232717D02*
Y365709D01*
X254035Y232717D02*
Y365709D01*
Y232717D02*
X273524D01*
X254035Y365709D02*
X273524D01*
X80807Y159287D02*
X100295D01*
X80807D02*
Y242283D01*
X100295Y159287D02*
Y242283D01*
X80807D02*
X100295D01*
D13*
X402001Y196998D02*
X403001Y197998D01*
X405000D01*
X406000Y196998D01*
Y193000D01*
X405000Y192000D01*
X403001D01*
X402001Y193000D01*
Y194999D01*
X404001D01*
X400002Y192000D02*
Y197998D01*
X396003Y192000D01*
Y197998D01*
X394004D02*
Y192000D01*
X391005D01*
X390005Y193000D01*
Y196998D01*
X391005Y197998D01*
X394004D01*
X209997Y331999D02*
X207997D01*
X208997D01*
Y326001D01*
X209997D01*
X207997D01*
X200999Y330999D02*
X201999Y331999D01*
X203998D01*
X204998Y330999D01*
Y327001D01*
X203998Y326001D01*
X201999D01*
X200999Y327001D01*
X199000Y330999D02*
X198001Y331999D01*
X196001D01*
X195001Y330999D01*
Y330000D01*
X196001Y329000D01*
X195001Y328000D01*
Y327001D01*
X196001Y326001D01*
X198001D01*
X199000Y327001D01*
Y328000D01*
X198001Y329000D01*
X199000Y330000D01*
Y330999D01*
X198001Y329000D02*
X196001D01*
X193002Y326001D02*
Y330000D01*
X191003Y331999D01*
X189003Y330000D01*
Y326001D01*
Y329000D01*
X193002D01*
X207347Y176541D02*
X205348D01*
X206347D01*
Y170543D01*
X207347D01*
X205348D01*
X198350Y175541D02*
X199350Y176541D01*
X201349D01*
X202349Y175541D01*
Y171542D01*
X201349Y170543D01*
X199350D01*
X198350Y171542D01*
X196351Y176541D02*
X192352D01*
Y175541D01*
X196351Y171542D01*
Y170543D01*
X190353Y176541D02*
Y170543D01*
X187354D01*
X186354Y171542D01*
Y172542D01*
X187354Y173542D01*
X190353D01*
X187354D01*
X186354Y174541D01*
Y175541D01*
X187354Y176541D01*
X190353D01*
X178356Y302175D02*
X176357D01*
X177357D01*
Y296177D01*
X178356D01*
X176357D01*
X169359Y301175D02*
X170359Y302175D01*
X172358D01*
X173358Y301175D01*
Y297177D01*
X172358Y296177D01*
X170359D01*
X169359Y297177D01*
X167360Y302175D02*
X163361D01*
Y301175D01*
X167360Y297177D01*
Y296177D01*
X161362D02*
Y300176D01*
X159363Y302175D01*
X157363Y300176D01*
Y296177D01*
Y299176D01*
X161362D01*
X124999Y87504D02*
Y89503D01*
Y88504D01*
X119001D01*
Y87504D01*
Y89503D01*
X123999Y96501D02*
X124999Y95502D01*
Y93502D01*
X123999Y92502D01*
X120001D01*
X119001Y93502D01*
Y95502D01*
X120001Y96501D01*
X119001Y98501D02*
Y100500D01*
Y99500D01*
X124999D01*
X123999Y98501D01*
X119001Y103499D02*
Y105498D01*
Y104499D01*
X124999D01*
X123999Y103499D01*
X124999Y108497D02*
X119001D01*
Y111496D01*
X120001Y112496D01*
X121000D01*
X122000Y111496D01*
Y108497D01*
Y111496D01*
X123000Y112496D01*
X123999D01*
X124999Y111496D01*
Y108497D01*
X124499Y283004D02*
Y285003D01*
Y284004D01*
X118501D01*
Y283004D01*
Y285003D01*
X123499Y292001D02*
X124499Y291001D01*
Y289002D01*
X123499Y288002D01*
X119501D01*
X118501Y289002D01*
Y291001D01*
X119501Y292001D01*
X118501Y294001D02*
Y296000D01*
Y295000D01*
X124499D01*
X123499Y294001D01*
X118501Y298999D02*
Y300998D01*
Y299998D01*
X124499D01*
X123499Y298999D01*
X118501Y303997D02*
X122500D01*
X124499Y305997D01*
X122500Y307996D01*
X118501D01*
X121500D01*
Y303997D01*
X36997Y186499D02*
X34997D01*
X35997D01*
Y180501D01*
X36997D01*
X34997D01*
X28000Y185499D02*
X28999Y186499D01*
X30999D01*
X31998Y185499D01*
Y181501D01*
X30999Y180501D01*
X28999D01*
X28000Y181501D01*
X26000Y180501D02*
X24001D01*
X25001D01*
Y186499D01*
X26000Y185499D01*
X21002D02*
X20002Y186499D01*
X18003D01*
X17003Y185499D01*
Y181501D01*
X18003Y180501D01*
X20002D01*
X21002Y181501D01*
Y185499D01*
X74999Y212914D02*
Y214913D01*
Y213913D01*
X69001D01*
Y212914D01*
Y214913D01*
X73999Y221911D02*
X74999Y220911D01*
Y218912D01*
X73999Y217912D01*
X70001D01*
X69001Y218912D01*
Y220911D01*
X70001Y221911D01*
Y223910D02*
X69001Y224910D01*
Y226909D01*
X70001Y227909D01*
X73999D01*
X74999Y226909D01*
Y224910D01*
X73999Y223910D01*
X73000D01*
X72000Y224910D01*
Y227909D01*
X203556Y40705D02*
X201556D01*
X202556D01*
Y34707D01*
X203556D01*
X201556D01*
X194559Y39706D02*
X195558Y40705D01*
X197557D01*
X198557Y39706D01*
Y35707D01*
X197557Y34707D01*
X195558D01*
X194559Y35707D01*
X192559Y39706D02*
X191560Y40705D01*
X189560D01*
X188560Y39706D01*
Y38706D01*
X189560Y37706D01*
X188560Y36707D01*
Y35707D01*
X189560Y34707D01*
X191560D01*
X192559Y35707D01*
Y36707D01*
X191560Y37706D01*
X192559Y38706D01*
Y39706D01*
X191560Y37706D02*
X189560D01*
X186561Y40705D02*
Y34707D01*
X183562D01*
X182562Y35707D01*
Y36707D01*
X183562Y37706D01*
X186561D01*
X183562D01*
X182562Y38706D01*
Y39706D01*
X183562Y40705D01*
X186561D01*
X47497Y163448D02*
X45497D01*
X46497D01*
Y157450D01*
X47497D01*
X45497D01*
X38500Y162448D02*
X39499Y163448D01*
X41499D01*
X42498Y162448D01*
Y158449D01*
X41499Y157450D01*
X39499D01*
X38500Y158449D01*
X32501Y163448D02*
X34501Y162448D01*
X36500Y160449D01*
Y158449D01*
X35500Y157450D01*
X33501D01*
X32501Y158449D01*
Y159449D01*
X33501Y160449D01*
X36500D01*
X30502Y163448D02*
Y157450D01*
X27503D01*
X26503Y158449D01*
Y159449D01*
X27503Y160449D01*
X30502D01*
X27503D01*
X26503Y161448D01*
Y162448D01*
X27503Y163448D01*
X30502D01*
X56289Y322941D02*
X54289D01*
X55289D01*
Y316943D01*
X56289D01*
X54289D01*
X47291Y321941D02*
X48291Y322941D01*
X50291D01*
X51290Y321941D01*
Y317943D01*
X50291Y316943D01*
X48291D01*
X47291Y317943D01*
X41293Y322941D02*
X43293Y321941D01*
X45292Y319942D01*
Y317943D01*
X44292Y316943D01*
X42293D01*
X41293Y317943D01*
Y318942D01*
X42293Y319942D01*
X45292D01*
X39294Y316943D02*
Y320941D01*
X37295Y322941D01*
X35295Y320941D01*
Y316943D01*
Y319942D01*
X39294D01*
D98*
X50170Y278563D02*
G03*
X50170Y278563I-984J0D01*
G01*
X55615Y125614D02*
G03*
X55615Y125614I-984J0D01*
G01*
M02*
