G04*
G04 #@! TF.GenerationSoftware,Altium Limited,Altium Designer,21.5.1 (32)*
G04*
G04 Layer_Color=128*
%FSLAX25Y25*%
%MOIN*%
G70*
G04*
G04 #@! TF.SameCoordinates,40A1BE61-9D6D-4511-9C65-2EA0C261B3BE*
G04*
G04*
G04 #@! TF.FilePolarity,Positive*
G04*
G01*
G75*
%ADD16R,0.02441X0.02441*%
%ADD17R,0.07087X0.04921*%
%ADD19R,0.03543X0.03937*%
%ADD20R,0.07087X0.04528*%
%ADD22R,0.04134X0.02559*%
%ADD30R,0.02362X0.06102*%
%ADD36R,0.02441X0.02284*%
%ADD38R,0.09252X0.08858*%
%ADD44R,0.02284X0.02441*%
%ADD45R,0.02441X0.02441*%
%ADD116R,0.03937X0.03740*%
%ADD117R,0.03740X0.03937*%
%ADD118R,0.06102X0.02362*%
%ADD119R,0.09646X0.11811*%
%ADD120R,0.03937X0.03543*%
%ADD121R,0.04921X0.07087*%
%ADD122R,0.06102X0.02362*%
%ADD123R,0.03347X0.03937*%
%ADD124R,0.01575X0.03740*%
%ADD125R,0.04331X0.05709*%
%ADD126R,0.13780X0.06299*%
%ADD127R,0.03937X0.03347*%
%ADD128R,0.04528X0.07087*%
%ADD129R,0.09055X0.31102*%
%ADD130R,0.09055X0.13386*%
%ADD131R,0.09843X0.14961*%
%ADD132R,0.09055X0.08465*%
D16*
X118000Y338272D02*
D03*
Y334728D02*
D03*
D17*
X225209Y342536D02*
D03*
X235445D02*
D03*
D19*
X150618Y167673D02*
D03*
X144319D02*
D03*
Y161200D02*
D03*
X150618D02*
D03*
X173685Y149810D02*
D03*
X167385D02*
D03*
X145706Y278200D02*
D03*
X152006D02*
D03*
X169386Y262810D02*
D03*
X175685D02*
D03*
X172453Y326500D02*
D03*
X178752D02*
D03*
X207159Y73096D02*
D03*
X200859D02*
D03*
X125150Y309652D02*
D03*
X131450D02*
D03*
X226150Y78000D02*
D03*
X219850D02*
D03*
X131362Y316756D02*
D03*
X219850Y70897D02*
D03*
X145706Y271097D02*
D03*
X202150Y364000D02*
D03*
X195850D02*
D03*
X152006Y271097D02*
D03*
X125063Y316756D02*
D03*
X226150Y70897D02*
D03*
X194150Y72946D02*
D03*
X81813Y154137D02*
D03*
X75514D02*
D03*
Y146752D02*
D03*
X81813D02*
D03*
X57188Y159500D02*
D03*
X50889D02*
D03*
X52096Y116169D02*
D03*
X45797D02*
D03*
X78445Y137051D02*
D03*
X84745D02*
D03*
X75514Y129947D02*
D03*
X81813D02*
D03*
X175350Y100000D02*
D03*
X181649D02*
D03*
X174319Y213118D02*
D03*
X180618D02*
D03*
X187850Y72946D02*
D03*
X137850Y48922D02*
D03*
X144150D02*
D03*
X73000Y284000D02*
D03*
X79299D02*
D03*
X73000Y290000D02*
D03*
X79299D02*
D03*
X47650Y269118D02*
D03*
X41350D02*
D03*
X54708Y313150D02*
D03*
X48409D02*
D03*
X70840Y303887D02*
D03*
X77139D02*
D03*
X70840Y310990D02*
D03*
X77140D02*
D03*
D20*
X155469Y120094D02*
D03*
Y131905D02*
D03*
X166000D02*
D03*
Y120488D02*
D03*
X144149Y118791D02*
D03*
Y130209D02*
D03*
X157469Y233094D02*
D03*
Y244905D02*
D03*
X168000D02*
D03*
Y233488D02*
D03*
X146150Y231791D02*
D03*
Y243209D02*
D03*
D22*
X157472Y335472D02*
D03*
X166528Y339213D02*
D03*
X157472Y342953D02*
D03*
X160472Y80899D02*
D03*
X88749Y72409D02*
D03*
X79694Y76150D02*
D03*
Y68669D02*
D03*
X88645Y44803D02*
D03*
X79589Y48543D02*
D03*
Y41062D02*
D03*
X88749Y58559D02*
D03*
X79694Y62299D02*
D03*
Y54819D02*
D03*
X169528Y77159D02*
D03*
X160472Y73419D02*
D03*
D30*
X97650Y305630D02*
D03*
X102650D02*
D03*
X107650D02*
D03*
X112650D02*
D03*
X97650Y284370D02*
D03*
X102650D02*
D03*
X107650D02*
D03*
X112650D02*
D03*
D36*
X73563Y54941D02*
D03*
Y58642D02*
D03*
Y43980D02*
D03*
Y40279D02*
D03*
X73587Y66260D02*
D03*
Y62559D02*
D03*
Y47559D02*
D03*
Y51260D02*
D03*
X75221Y70559D02*
D03*
Y74260D02*
D03*
X95100Y48450D02*
D03*
Y44750D02*
D03*
D38*
X340602Y54173D02*
D03*
X321311D02*
D03*
D44*
X45101Y333149D02*
D03*
X48801D02*
D03*
X56449D02*
D03*
X52749D02*
D03*
X73596Y90500D02*
D03*
X69895D02*
D03*
X78299Y35587D02*
D03*
X82000D02*
D03*
X78746Y90500D02*
D03*
X82447D02*
D03*
D45*
X57582Y212637D02*
D03*
X54039D02*
D03*
X40332Y184608D02*
D03*
X43875D02*
D03*
D116*
X190535Y274823D02*
D03*
X188535Y161823D02*
D03*
X209327Y49415D02*
D03*
X217327Y340469D02*
D03*
X173469Y57323D02*
D03*
X181532Y348869D02*
D03*
Y342570D02*
D03*
X217327Y346768D02*
D03*
X188535Y155524D02*
D03*
X190535Y268524D02*
D03*
X173469Y51024D02*
D03*
X209327Y55714D02*
D03*
D117*
X162712Y292473D02*
D03*
X160712Y179473D02*
D03*
X59697Y116169D02*
D03*
X65997D02*
D03*
X70933Y97500D02*
D03*
X77232D02*
D03*
X167012Y179473D02*
D03*
X208590Y118791D02*
D03*
X202291D02*
D03*
X210590Y231791D02*
D03*
X204291D02*
D03*
X169012Y292473D02*
D03*
X99000Y313150D02*
D03*
X105299D02*
D03*
X54252Y269118D02*
D03*
X60551D02*
D03*
D118*
X161905Y286173D02*
D03*
X183165Y276173D02*
D03*
X159905Y173173D02*
D03*
X181165Y163173D02*
D03*
X161905Y281173D02*
D03*
X159905Y168173D02*
D03*
Y158173D02*
D03*
Y163173D02*
D03*
X181165Y173173D02*
D03*
Y168173D02*
D03*
Y158173D02*
D03*
X161905Y271173D02*
D03*
Y276173D02*
D03*
X183165Y286173D02*
D03*
Y281173D02*
D03*
Y271173D02*
D03*
D119*
X172535Y278673D02*
D03*
X170535Y165673D02*
D03*
D120*
X212606Y248780D02*
D03*
X210606Y135780D02*
D03*
X189689Y357850D02*
D03*
Y364150D02*
D03*
X112650Y337878D02*
D03*
Y331579D02*
D03*
X47497Y224264D02*
D03*
Y217965D02*
D03*
X64345Y218051D02*
D03*
Y224350D02*
D03*
X59094Y239650D02*
D03*
Y233350D02*
D03*
X105332Y156153D02*
D03*
Y149854D02*
D03*
X97925Y150159D02*
D03*
Y143860D02*
D03*
X105332Y142601D02*
D03*
Y136302D02*
D03*
X38373Y134000D02*
D03*
Y127701D02*
D03*
X38373Y144389D02*
D03*
Y150688D02*
D03*
X94700Y137150D02*
D03*
Y130850D02*
D03*
X199760Y129481D02*
D03*
Y135780D02*
D03*
X210606Y129481D02*
D03*
X212606Y242481D02*
D03*
X201760D02*
D03*
Y248780D02*
D03*
X181689Y73096D02*
D03*
Y66797D02*
D03*
X52276Y239650D02*
D03*
Y233350D02*
D03*
X42836Y211500D02*
D03*
Y205201D02*
D03*
X35438Y190121D02*
D03*
Y196420D02*
D03*
X52195Y197650D02*
D03*
Y191350D02*
D03*
X48946Y211500D02*
D03*
Y205201D02*
D03*
X85150Y290099D02*
D03*
Y283799D02*
D03*
X32500Y295610D02*
D03*
Y301910D02*
D03*
X32500Y285650D02*
D03*
Y279350D02*
D03*
X91150Y296150D02*
D03*
Y289850D02*
D03*
X84046Y315206D02*
D03*
Y308907D02*
D03*
X91150Y308150D02*
D03*
Y301850D02*
D03*
D121*
X217000Y50596D02*
D03*
X124605Y337331D02*
D03*
X166142Y60236D02*
D03*
X174142Y351290D02*
D03*
X124605Y347568D02*
D03*
X174142Y341053D02*
D03*
X166142Y50000D02*
D03*
X217000Y60832D02*
D03*
D122*
X201630Y45446D02*
D03*
X209630Y336500D02*
D03*
X180370Y55446D02*
D03*
X188370Y346500D02*
D03*
X90870Y92303D02*
D03*
Y97303D02*
D03*
Y102303D02*
D03*
Y107303D02*
D03*
X112130Y92303D02*
D03*
Y97303D02*
D03*
Y102303D02*
D03*
Y107303D02*
D03*
X209630Y346500D02*
D03*
X188370Y341500D02*
D03*
X209630D02*
D03*
X201630Y50446D02*
D03*
X209630Y351500D02*
D03*
X188370D02*
D03*
Y336500D02*
D03*
X201630Y55446D02*
D03*
X180370Y50446D02*
D03*
X61981Y306949D02*
D03*
Y301949D02*
D03*
Y296949D02*
D03*
Y291949D02*
D03*
Y286949D02*
D03*
Y281949D02*
D03*
Y276949D02*
D03*
X40721Y306949D02*
D03*
Y301949D02*
D03*
Y296949D02*
D03*
Y291949D02*
D03*
Y286949D02*
D03*
Y281949D02*
D03*
Y276949D02*
D03*
X67426Y154000D02*
D03*
Y149000D02*
D03*
Y144000D02*
D03*
Y139000D02*
D03*
Y134000D02*
D03*
Y129000D02*
D03*
Y124000D02*
D03*
X46166Y154000D02*
D03*
Y149000D02*
D03*
Y144000D02*
D03*
Y139000D02*
D03*
Y134000D02*
D03*
Y129000D02*
D03*
Y124000D02*
D03*
X180370Y45446D02*
D03*
Y60446D02*
D03*
X201630D02*
D03*
D123*
X227150Y88297D02*
D03*
X220850D02*
D03*
X238618Y202500D02*
D03*
X232319D02*
D03*
D124*
X53338Y225923D02*
D03*
X55897D02*
D03*
X58456D02*
D03*
Y217262D02*
D03*
X53338D02*
D03*
X41135Y189474D02*
D03*
X46253D02*
D03*
Y198136D02*
D03*
X43694D02*
D03*
X41135D02*
D03*
D125*
X330957Y41000D02*
D03*
X338043D02*
D03*
X313543Y30398D02*
D03*
X306457D02*
D03*
X330957D02*
D03*
X338043D02*
D03*
X313543Y41000D02*
D03*
X306457D02*
D03*
D126*
X185468Y121276D02*
D03*
Y137024D02*
D03*
X187468Y234276D02*
D03*
Y250024D02*
D03*
D127*
X235469Y121024D02*
D03*
Y127323D02*
D03*
X237469Y234024D02*
D03*
Y240323D02*
D03*
D128*
X227709Y98500D02*
D03*
X216291D02*
D03*
X203817Y98500D02*
D03*
X192399D02*
D03*
X238209Y211500D02*
D03*
X226791D02*
D03*
X218118Y211500D02*
D03*
X206701D02*
D03*
D129*
X408079Y291063D02*
D03*
D130*
X367922Y282205D02*
D03*
D131*
X379733Y321969D02*
D03*
Y268032D02*
D03*
X396662Y321969D02*
D03*
Y268032D02*
D03*
D132*
X396965Y250000D02*
D03*
X380035D02*
D03*
M02*
