M48
;Layer_Color=9474304
;FILE_FORMAT=2:5
INCH,LZ
;TYPE=PLATED
T1F00S00C0.00787
T2F00S00C0.01968
T3F00S00C0.02800
T4F00S00C0.03150
T5F00S00C0.03543
T6F00S00C0.03937
T7F00S00C0.04094
T8F00S00C0.04724
T9F00S00C0.05906
T10F00S00C0.06299
T11F00S00C0.06693
T12F00S00C0.07087
T13F00S00C0.10630
T14F00S00C0.12598
;TYPE=NON_PLATED
T15F00S00C0.11811
T16F00S00C0.26378
%
T01
X0146Y00184
X0177494Y00245
X0138135Y0055672
X01875Y0066198
X04075Y0067
X0152Y0069565
X0156472Y007574
X01195Y00745
Y007056
X0090617Y0085414
X00809Y00871
X0084458Y0098924
X0100943Y0100322
X0107308Y01055
X01286Y01294
X0133534Y0143818
X014Y0144
X0136Y0151092
X0144861Y013715
X01342Y01898
X0134161Y0195577
X00765Y0160241
X0081245Y01405
X0073587Y0125834
X00641Y00767
X0056933Y0075716
X00553Y00738
X0029888Y0189474
X0091Y0241
Y0269315
X00795Y02782
X0073Y02765
X0066Y0269315
X0050551Y03015
X00501Y03301
X007714Y0315206
X0087Y0320246
X0092402Y0321877
X0095551Y0317596
X01125Y03
X011778Y028283
X0124217Y0281524
X014615Y0247874
X0148856Y0318712
X01431Y0322292
X0161905Y0320508
X0166657
X0156Y0333
X0116Y0332
X0305Y0374969
X0332751Y0373084
T02
X0039068Y0016082
X0045683Y0022865
X0038876Y0029479
X0085218Y0038695
X0081245Y005126
X0085218Y0063104
X00691Y00636
X014415Y0064868
X0152Y0049162
X0162678Y0054381
X01685Y0066908
X01725Y00635
X0144861Y0038695
X01295Y00425
X0209327Y0060446
X0217Y0066198
X0223Y0054381
X024805Y00245
X0306406Y00255
X0302Y00305
X0302051Y0041
X0306406Y0045737
X0344742Y0040915
X0343544Y0031511
X0338Y0025012
X0347301Y0054089
X0340687Y0060872
X0399079Y0067
X041015Y0079472
X0427425Y0079286
X0421801Y0094935
Y0101915
X0411884Y0202037
X03625Y0172709
X0369199Y0164443
X0355801Y0164274
X0320943Y0139512
X0314127
X0283226Y0148301
X0283057Y0161699
X0275301Y0176415
X0276443Y0119415
Y0109915
X0280085Y0086801
X0287585
X024428Y00935
X0241105Y0091439
X0240538Y0102858
X024428Y0103096
X02505Y0107
X0213Y0118693
X02105Y01395
X019476Y0142394
X0181773Y0142479
X0188451Y0151092
X0193Y01585
X0221139Y01485
X017499Y0136636
X0170756Y0178146
X0160619Y0183111
X0154Y0172881
X0109737Y0155953
X0062245Y0145069
X00525Y01405
X00625Y0128576
X0061293Y0111557
X0066624Y0097095
X0066878Y0092303
X00683Y008085
X0072441Y0076726
X0082985Y0095189
X0111895Y00871
X0113597Y0083229
X01325Y0088
X0145993Y0084946
X0157497Y0085203
X0042Y0116
X004019Y012309
X0038373Y0154051
X0042624Y0157791
X0046999Y0159458
X0043032Y0180927
X0043889Y0201354
X0058Y02085
X0056809Y019101
X0069Y022
X0056Y02295
X0052608Y0265276
X003677Y0269315
X00275Y028
X0033338Y0290099
X0033469Y0306949
X0043743Y0312984
X0042146Y0334068
X00571Y0337
X0055897Y0300262
X006813Y028
X0094Y0282524
X0092402Y0312953
X0107764Y0343137
X0116Y0341683
X0121898Y0353833
X0126307Y0354
X0146392Y0347085
X01547Y03469
X0153085Y0327006
X0151199Y0314085
Y0308085
X0163Y0297
X01735Y0295
X01552Y0285025
X0133Y0301
X0174057Y0334355
X0037388Y0360501
X0044002Y0367365
X0036915Y0373699
X018Y0354
X0181447Y0335871
X0225209Y0335472
X02225Y0347188
X0235529Y0347168
X0288262Y0351029
X0294876Y0357813
X0318726Y0364606
X0326924Y0359213
X0322301Y0343606
X0312Y0343775
X0318267Y0324991
X0314858Y0315211
Y0308711
X0313317Y0303085
X0313669Y0294711
X0315484Y0289789
X0321854Y0286104
X0330039Y0294289
X0323624Y0301505
X0306233Y0309775
X0306313Y0322662
X0307088Y0281815
X0314831Y0273929
X0306435Y0265955
X0298461Y0274351
X0277801Y0271415
X0277886Y02775
X0197468Y0274
X0194563Y0268479
X0202Y0255
X0212606Y02525
X0216Y0231151
X0191138Y0244905
X018365
X01785Y025
X034123Y0287801
X0341061Y0300777
X0349242Y0294795
X0360003Y0283457
X0368006Y0291098
X037573Y0283416
X0398Y0282075
Y0287801
Y0294289
Y0301326
X0418583Y0301825
X0418498Y0294711
Y0286019
X0417915Y0279844
X03475Y0336
X0344543Y0343968
X0338699Y0343775
T03
X04055Y0249275
Y0268032
T04
X0322Y0031
Y0041
X0382
Y0031
Y0091
Y0101
Y0111
Y0131
X0322
Y0111
Y0101
Y0091
T05
X0058445Y0023608
Y0033608
X0088445
Y0023608
X0185468Y011
X0195468
X0205469
X0215469
X0225468
X0235469
X0237469Y0223
X0227468
X0217469
X0207469
X0197468
X0187469
X0177469
X0167469
X0157468
X0147468
X0120603Y0154
Y0144
Y0125834
Y0115834
X0090603
Y0125834
Y0144
Y0154
X0145468Y011
X0155468
X0165469
X0175469
X0084458Y02965
X0074458
Y03265
X0084458
T06
X0028175Y00875
Y00975
Y01075
X0008175
Y00975
Y00875
Y0162
Y0172
Y0182
X0018175
Y0172
Y0162
X0021Y02365
X0011
X0008175Y02865
X0018175
Y02965
Y03065
X0008175
Y02965
X0031Y02365
X0041
T07
X025878Y0034173
Y0044173
Y0054173
Y0064173
X026878
Y0054173
Y0044173
Y0034173
Y0074173
Y0084173
Y0094173
Y0104173
Y0114173
Y0124173
Y0134173
Y0144173
Y0154173
Y0164173
Y0174173
Y0184173
Y0194173
X025878
Y0184173
Y0174173
Y0164173
Y0154173
Y0144173
Y0134173
Y0124173
Y0114173
Y0104173
Y0094173
Y0084173
Y0074173
X0095551Y0165787
X0085551
Y0175787
X0095551
Y0185787
Y0195787
Y0205787
Y0215787
X0085551
Y0205787
Y0195787
Y0185787
Y0225787
X0095551
Y0235787
X0085551
X025878Y0239213
X026878
Y0249213
Y0259213
Y0269213
Y0279213
Y0289213
Y0299213
Y0309213
Y0319213
Y0329213
Y0339213
Y0349213
Y0359213
X025878
Y0349213
Y0339213
Y0329213
Y0319213
Y0309213
Y0299213
Y0289213
Y0279213
Y0269213
Y0259213
Y0249213
T08
X00126Y01345
Y026
T09
X0011Y0213
Y0337
T10
X00226Y01245
Y01445
X00026
Y01245
Y025
Y027
X00226
Y025
T11
X00453Y0042
X0054792Y0054992
X00453Y0067984
X0021Y0203
Y0223
X0001
Y0203
Y0327
Y0347
X0021
Y0327
T12
X0039288Y01055
X0057792
X0076296
X0066Y0168
Y0186504
Y0205008
X0113272Y0201026
Y021953
Y0182522
X0113Y0234996
Y02535
Y0272004
X0079004Y02595
X00605
X0041996
X0041675Y0349705
X0060179
X0078683
X0363606Y0354732
Y0371268
X038526
Y0354732
T13
X0014Y0021701
Y0371701
T14
X0111811Y0029921
X0229921
X0111811Y0364567
X0229921
T15
X0414Y0363
T16
X0190469Y0196
X0192469Y0309
M30
